<?xml version="1.0" ?><!DOCTYPE svg  PUBLIC '-//W3C//DTD SVG 1.1//EN'  'http://www.w3.org/Graphics/SVG/1.1/DTD/svg11.dtd'><svg enable-background="new 0 0 512 512" id="Layer_1" version="1.1" viewBox="0 0 512 512" xml:space="preserve" xmlns="http://www.w3.org/2000/svg" xmlns:xlink="http://www.w3.org/1999/xlink"><g><path d="M99.5,504.7c0-2.4,0-4.2,0-6c0-26.5-0.1-53,0.1-79.5c0-2.9,0.7-6,2-8.5c28.6-54.9,57.3-109.7,85.9-164.6   c3.2-6-1.6-13.9-8.6-13.9c-24.3,0-48.7,0-73,0c-2,0-3.9,0-6.2,0c0-41.4,0-82.3,0-123.8c2.3,0,4.2,0,6.2,0c46.5,0,93,0,139.5,0   c9.4,0,16.4-5.1,20.6-12.6c13.4-24.3,25.9-49.2,39.1-73.6c2.4-4.4,6.4-8,9.9-11.7c0.7-0.8,2.4-1.1,3.6-1.1c28.3-0.1,56.7,0,85,0   c0.6,0,1.3,0.2,2.4,0.4c0,1.7,0,3.3,0,4.9c0,26.8,0.1,53.7-0.1,80.5c0,2.8-0.8,5.9-2.1,8.5c-28.4,54.4-56.9,108.8-85.4,163.2   c-4,7.7,0.5,15.1,9.3,15.1c25.8,0,51.6,0,77.9,0c0,41.2,0,82.2,0,123.7c-2.1,0-4.1,0-6,0c-46.7,0-93.3,0-140,0   c-9.1,0-16.2,5.1-20.2,12.4c-13.7,24.8-26.2,50.1-39.7,75c-3.8,7-9,12.1-18.8,11.8c-25-0.7-50-0.2-75-0.2   C104,504.7,102.1,504.7,99.5,504.7z"/></g></svg>